<svg width="100" height="100" viewBox="0 0 100 100" fill="none" xmlns="http://www.w3.org/2000/svg">
<path d="M59.9813 4.9765L27.9104 37.8036C24.0538 41.7538 25.4747 48.3601 30.5492 50.4032L50.0352 58.2354L41.3071 88.8151C39.6833 94.4679 46.8552 98.3499 50.6442 93.923L83.5946 55.7155C86.9776 51.7654 85.6244 45.6358 80.8205 43.5245L60.4549 34.6026L68.98 10.6293C70.9422 5.11271 64.1085 0.753926 59.9813 4.9765Z" fill="#FFCC00"/>
<path d="M77.1021 47.0947C82.2966 48.5112 92.544 53.1857 91.9773 60.5515C91.4106 67.9173 83.4772 72.5917 79.5813 74.0082C81.4702 74.2443 85.1772 75.2831 84.8939 77.5495C84.5397 80.3825 80.6438 80.3825 78.873 80.0283C77.4563 79.745 75.9215 79.202 75.3313 78.966C73.5996 78.2935 71.2102 77.116 70.4449 76.0955C69.5196 74.8614 69.211 74.2444 69.5195 72.0847" stroke="#4C5052" stroke-linecap="round" stroke-linejoin="round"/>
<path d="M73.5759 67.2782L75.878 65.6846M78.1801 64.0911L75.878 65.6846M73.2217 63.3828L75.878 65.6846" stroke="#4C5052" stroke-linecap="round" stroke-linejoin="round"/>
<path d="M83.8398 71.8816C84.5482 71.9996 85.894 72.5898 85.6107 74.0063C85.3274 75.4228 84.076 75.4228 83.8398 75.4228" stroke="#4C5052" stroke-linecap="round" stroke-linejoin="round"/>
<path d="M58.1045 48.9455C58.1045 48.9455 60.8813 48.9455 62.4238 48.02C64.4371 46.812 65.2004 44.9348 65.2004 44.9348" stroke="#4C5052" stroke-linecap="round"/>
<ellipse cx="56.8276" cy="39.9563" rx="1.5" ry="1.5" fill="#4C5052"/>
<ellipse cx="45.7209" cy="41.8071" rx="1.5" ry="1.5" fill="#4C5052"/>
<path fill-rule="evenodd" clip-rule="evenodd" d="M52.0568 52.2753C52.5699 53.7734 51.7715 55.4038 50.2734 55.9169C49.9604 56.0241 49.6416 56.0741 49.3284 56.0723C49.9688 56.401 50.5926 56.8953 51.1543 57.6085L51.9196 57.0875C52.1479 56.9321 52.4589 56.9912 52.6143 57.2195C52.7697 57.4478 52.7106 57.7588 52.4823 57.9142L51.7165 58.4354C51.9405 58.8163 52.1495 59.2424 52.3398 59.7181C49.6351 60.1352 48.0359 60.4115 46.235 60.7227C45.2603 60.8911 44.226 61.0698 42.9258 61.2865C41.2674 61.5629 43.4928 57.3614 44.6269 56.0159C45.3643 55.6689 46.5007 55.395 47.7164 55.5649C47.2277 55.2284 46.8388 54.7379 46.6318 54.1335C46.1187 52.6354 46.9172 51.005 48.4153 50.4919C49.9133 49.9788 51.5437 50.7773 52.0568 52.2753ZM51.1108 52.5994C51.4449 53.5749 50.9249 54.6367 49.9494 54.9708C49.6962 55.0575 49.4373 55.0867 49.1868 55.0654L49.5648 54.0576C49.6617 53.799 49.5307 53.5108 49.2722 53.4139C49.0136 53.3169 48.7254 53.4479 48.6284 53.7065L48.2494 54.7171C47.9475 54.499 47.7077 54.1886 47.5779 53.8094C47.2437 52.8339 47.7637 51.7721 48.7393 51.438C49.7149 51.1038 50.7766 51.6238 51.1108 52.5994Z" fill="#00ACFF"/>
<path d="M50.6386 69.3826C50.7927 69.7271 50.6149 70.6706 48.6712 71.688C46.2416 72.9597 46.4049 73.2408 43.3932 73.9101C36.5926 75.4213 17.1691 82.1364 17.1691 66.8141C17.1691 57.682 23.648 52.3138 32.5951 43.9838M49.5635 69.8993C50.6104 69.3741 52.6842 68.1474 52.6652 67.3748C52.6463 66.6023 52.6021 66.1313 52.5823 65.9923M50.6386 66.8141C51.9857 66.1991 54.9266 64.5353 52.9261 63.092M50.6386 63.729C51.4919 63.6545 54.5023 62.4949 53.4595 60.6432C52.6341 59.1776 43.0075 61.9546 42.7762 61.2608C41.8506 58.4839 44.5331 56.8105 44.6272 55.7075C44.7932 53.7625 41.8507 54.9361 40.9251 55.7075C39.9995 56.4788 38.6332 58.7927 37.8399 60.6432C37.1428 62.2694 33.7323 63.1524 30.2769 63.729" stroke="#4C5052" stroke-linecap="round" stroke-linejoin="round"/>
</svg>
